<mxfile host="app.diagrams.net" modified="2021-04-25T06:43:34.447Z" agent="5.0 (Windows NT 10.0; Win64; x64) AppleWebKit/537.36 (KHTML, like Gecko) Chrome/90.0.4430.85 Safari/537.36" etag="Dw_EXkgJc9wmOfL8CtRk" version="14.6.6" type="github">
  <diagram name="Page-1" id="2c0d36ab-eaac-3732-788b-9136903baeff">
    <mxGraphModel dx="1223" dy="988" grid="1" gridSize="10" guides="1" tooltips="1" connect="1" arrows="1" fold="1" page="1" pageScale="1.5" pageWidth="1169" pageHeight="827" background="#ffffff" math="0" shadow="0">
      <root>
        <mxCell id="0" />
        <mxCell id="1" parent="0" />
        <mxCell id="2" value="产品" style="rounded=1;fontStyle=1;fontFamily=Tahoma;fontSize=14" parent="1" vertex="1">
          <mxGeometry x="757" y="185.5" width="190" height="80" as="geometry" />
        </mxCell>
        <mxCell id="9" value="" style="edgeStyle=elbowEdgeStyle;elbow=vertical;strokeWidth=2;rounded=0" parent="1" source="2" edge="1">
          <mxGeometry x="337" y="215.5" width="100" height="100" as="geometry">
            <mxPoint x="337" y="315.5" as="sourcePoint" />
            <mxPoint x="1457" y="335.5" as="targetPoint" />
          </mxGeometry>
        </mxCell>
        <mxCell id="10" value="Sprint" style="rounded=1;fontStyle=1;fontFamily=Tahoma;fontSize=14" parent="1" vertex="1">
          <mxGeometry x="757" y="335.5" width="190" height="80" as="geometry" />
        </mxCell>
        <mxCell id="13" value="管理" style="rounded=1;fontStyle=1;fontFamily=Tahoma;fontSize=14" parent="1" vertex="1">
          <mxGeometry x="120" y="335.5" width="190" height="80" as="geometry" />
        </mxCell>
        <mxCell id="16" value="计划" style="rounded=1;fontStyle=1;fontFamily=Tahoma;fontSize=14" parent="1" vertex="1">
          <mxGeometry x="250" y="455.5" width="130" height="60" as="geometry" />
        </mxCell>
        <mxCell id="17" value="会议" style="rounded=1;fontStyle=1;fontFamily=Tahoma;fontSize=14" parent="1" vertex="1">
          <mxGeometry x="250" y="545.5" width="130" height="60" as="geometry" />
        </mxCell>
        <mxCell id="18" value="经营" style="rounded=1;fontStyle=1;fontFamily=Tahoma;fontSize=14" parent="1" vertex="1">
          <mxGeometry x="250" y="635.5" width="130" height="60" as="geometry" />
        </mxCell>
        <mxCell id="59" value="" style="edgeStyle=elbowEdgeStyle;elbow=vertical;strokeWidth=2;rounded=0" parent="1" source="2" edge="1">
          <mxGeometry x="347" y="225.5" width="100" height="100" as="geometry">
            <mxPoint x="861.9999999999999" y="275.5" as="sourcePoint" />
            <mxPoint x="415" y="335.5" as="targetPoint" />
          </mxGeometry>
        </mxCell>
        <mxCell id="61" value="" style="edgeStyle=elbowEdgeStyle;elbow=vertical;strokeWidth=2;rounded=0" parent="1" source="2" target="13" edge="1">
          <mxGeometry x="-23" y="135.5" width="100" height="100" as="geometry">
            <mxPoint x="-23" y="235.5" as="sourcePoint" />
            <mxPoint x="77" y="135.5" as="targetPoint" />
          </mxGeometry>
        </mxCell>
        <mxCell id="64" value="" style="edgeStyle=elbowEdgeStyle;elbow=horizontal;strokeWidth=2;rounded=0" parent="1" source="13" target="16" edge="1">
          <mxGeometry x="-10" y="135.5" width="100" height="100" as="geometry">
            <mxPoint x="-10" y="235.5" as="sourcePoint" />
            <mxPoint x="90" y="135.5" as="targetPoint" />
            <Array as="points">
              <mxPoint x="215" y="435.5" />
            </Array>
          </mxGeometry>
        </mxCell>
        <mxCell id="65" value="" style="edgeStyle=elbowEdgeStyle;elbow=horizontal;strokeWidth=2;rounded=0" parent="1" source="13" target="17" edge="1">
          <mxGeometry x="-10" y="135.5" width="100" height="100" as="geometry">
            <mxPoint x="-10" y="235.5" as="sourcePoint" />
            <mxPoint x="90" y="135.5" as="targetPoint" />
            <Array as="points">
              <mxPoint x="215" y="475.5" />
            </Array>
          </mxGeometry>
        </mxCell>
        <mxCell id="66" value="" style="edgeStyle=elbowEdgeStyle;elbow=horizontal;strokeWidth=2;rounded=0" parent="1" source="13" target="18" edge="1">
          <mxGeometry x="-10" y="135.5" width="100" height="100" as="geometry">
            <mxPoint x="-10" y="235.5" as="sourcePoint" />
            <mxPoint x="90" y="135.5" as="targetPoint" />
            <Array as="points">
              <mxPoint x="215" y="525.5" />
            </Array>
          </mxGeometry>
        </mxCell>
        <mxCell id="ajaQP3VODttiOs9Wyczl-124" value="资源管理" style="rounded=1;fontStyle=1;fontFamily=Tahoma;fontSize=14" vertex="1" parent="1">
          <mxGeometry x="250" y="725.5" width="130" height="60" as="geometry" />
        </mxCell>
        <mxCell id="ajaQP3VODttiOs9Wyczl-125" value="文档管理" style="rounded=1;fontStyle=1;fontFamily=Tahoma;fontSize=14" vertex="1" parent="1">
          <mxGeometry x="250" y="815.5" width="130" height="60" as="geometry" />
        </mxCell>
        <mxCell id="ajaQP3VODttiOs9Wyczl-126" value="风险分析" style="rounded=1;fontStyle=1;fontFamily=Tahoma;fontSize=14" vertex="1" parent="1">
          <mxGeometry x="250" y="905.5" width="130" height="60" as="geometry" />
        </mxCell>
        <mxCell id="ajaQP3VODttiOs9Wyczl-127" value="" style="edgeStyle=elbowEdgeStyle;elbow=horizontal;strokeWidth=2;rounded=0;entryX=0;entryY=0.5;entryDx=0;entryDy=0;" edge="1" parent="1" target="ajaQP3VODttiOs9Wyczl-124">
          <mxGeometry x="-10" y="145.5" width="100" height="100" as="geometry">
            <mxPoint x="215" y="425.5" as="sourcePoint" />
            <mxPoint x="250" y="675.5" as="targetPoint" />
            <Array as="points">
              <mxPoint x="215" y="535.5" />
            </Array>
          </mxGeometry>
        </mxCell>
        <mxCell id="ajaQP3VODttiOs9Wyczl-128" value="" style="edgeStyle=elbowEdgeStyle;elbow=horizontal;strokeWidth=2;rounded=0;entryX=0;entryY=0.5;entryDx=0;entryDy=0;" edge="1" parent="1" target="ajaQP3VODttiOs9Wyczl-125">
          <mxGeometry x="-10" y="160" width="100" height="100" as="geometry">
            <mxPoint x="215" y="440" as="sourcePoint" />
            <mxPoint x="250" y="770" as="targetPoint" />
            <Array as="points">
              <mxPoint x="215" y="550" />
            </Array>
          </mxGeometry>
        </mxCell>
        <mxCell id="ajaQP3VODttiOs9Wyczl-129" value="" style="edgeStyle=elbowEdgeStyle;elbow=horizontal;strokeWidth=2;rounded=0;entryX=0;entryY=0.5;entryDx=0;entryDy=0;" edge="1" parent="1" target="ajaQP3VODttiOs9Wyczl-126">
          <mxGeometry x="-10" y="165.5" width="100" height="100" as="geometry">
            <mxPoint x="215" y="445.5" as="sourcePoint" />
            <mxPoint x="250" y="851" as="targetPoint" />
            <Array as="points">
              <mxPoint x="215" y="555.5" />
            </Array>
          </mxGeometry>
        </mxCell>
        <mxCell id="ajaQP3VODttiOs9Wyczl-132" value="分析" style="rounded=1;fontStyle=1;fontFamily=Tahoma;fontSize=14" vertex="1" parent="1">
          <mxGeometry x="333" y="335.5" width="190" height="80" as="geometry" />
        </mxCell>
        <mxCell id="ajaQP3VODttiOs9Wyczl-133" value="定义目标" style="rounded=1;fontStyle=1;fontFamily=Tahoma;fontSize=14" vertex="1" parent="1">
          <mxGeometry x="463" y="455.5" width="130" height="60" as="geometry" />
        </mxCell>
        <mxCell id="ajaQP3VODttiOs9Wyczl-134" value="定义需求" style="rounded=1;fontStyle=1;fontFamily=Tahoma;fontSize=14" vertex="1" parent="1">
          <mxGeometry x="463" y="545.5" width="130" height="60" as="geometry" />
        </mxCell>
        <mxCell id="ajaQP3VODttiOs9Wyczl-135" value="工作估算" style="rounded=1;fontStyle=1;fontFamily=Tahoma;fontSize=14" vertex="1" parent="1">
          <mxGeometry x="463" y="635.5" width="130" height="60" as="geometry" />
        </mxCell>
        <mxCell id="ajaQP3VODttiOs9Wyczl-136" value="" style="edgeStyle=elbowEdgeStyle;elbow=horizontal;strokeWidth=2;rounded=0" edge="1" parent="1" source="ajaQP3VODttiOs9Wyczl-132" target="ajaQP3VODttiOs9Wyczl-133">
          <mxGeometry x="203" y="135.5" width="100" height="100" as="geometry">
            <mxPoint x="203" y="235.5" as="sourcePoint" />
            <mxPoint x="303" y="135.5" as="targetPoint" />
            <Array as="points">
              <mxPoint x="428" y="435.5" />
            </Array>
          </mxGeometry>
        </mxCell>
        <mxCell id="ajaQP3VODttiOs9Wyczl-137" value="" style="edgeStyle=elbowEdgeStyle;elbow=horizontal;strokeWidth=2;rounded=0" edge="1" parent="1" source="ajaQP3VODttiOs9Wyczl-132" target="ajaQP3VODttiOs9Wyczl-134">
          <mxGeometry x="203" y="135.5" width="100" height="100" as="geometry">
            <mxPoint x="203" y="235.5" as="sourcePoint" />
            <mxPoint x="303" y="135.5" as="targetPoint" />
            <Array as="points">
              <mxPoint x="428" y="475.5" />
            </Array>
          </mxGeometry>
        </mxCell>
        <mxCell id="ajaQP3VODttiOs9Wyczl-138" value="" style="edgeStyle=elbowEdgeStyle;elbow=horizontal;strokeWidth=2;rounded=0" edge="1" parent="1" source="ajaQP3VODttiOs9Wyczl-132" target="ajaQP3VODttiOs9Wyczl-135">
          <mxGeometry x="203" y="135.5" width="100" height="100" as="geometry">
            <mxPoint x="203" y="235.5" as="sourcePoint" />
            <mxPoint x="303" y="135.5" as="targetPoint" />
            <Array as="points">
              <mxPoint x="428" y="525.5" />
            </Array>
          </mxGeometry>
        </mxCell>
        <mxCell id="ajaQP3VODttiOs9Wyczl-139" value="分析里程碑" style="rounded=1;fontStyle=1;fontFamily=Tahoma;fontSize=14" vertex="1" parent="1">
          <mxGeometry x="463" y="725.5" width="130" height="60" as="geometry" />
        </mxCell>
        <mxCell id="ajaQP3VODttiOs9Wyczl-142" value="" style="edgeStyle=elbowEdgeStyle;elbow=horizontal;strokeWidth=2;rounded=0;entryX=0;entryY=0.5;entryDx=0;entryDy=0;" edge="1" parent="1" target="ajaQP3VODttiOs9Wyczl-139">
          <mxGeometry x="203" y="145.5" width="100" height="100" as="geometry">
            <mxPoint x="428" y="425.5" as="sourcePoint" />
            <mxPoint x="463" y="675.5" as="targetPoint" />
            <Array as="points">
              <mxPoint x="428" y="535.5" />
            </Array>
          </mxGeometry>
        </mxCell>
        <mxCell id="ajaQP3VODttiOs9Wyczl-145" value="系统设计" style="rounded=1;fontStyle=1;fontFamily=Tahoma;fontSize=14" vertex="1" parent="1">
          <mxGeometry x="543" y="335.5" width="190" height="80" as="geometry" />
        </mxCell>
        <mxCell id="ajaQP3VODttiOs9Wyczl-146" value="架构" style="rounded=1;fontStyle=1;fontFamily=Tahoma;fontSize=14" vertex="1" parent="1">
          <mxGeometry x="673" y="455.5" width="130" height="60" as="geometry" />
        </mxCell>
        <mxCell id="ajaQP3VODttiOs9Wyczl-147" value="组件" style="rounded=1;fontStyle=1;fontFamily=Tahoma;fontSize=14" vertex="1" parent="1">
          <mxGeometry x="673" y="545.5" width="130" height="60" as="geometry" />
        </mxCell>
        <mxCell id="ajaQP3VODttiOs9Wyczl-148" value="数据库" style="rounded=1;fontStyle=1;fontFamily=Tahoma;fontSize=14" vertex="1" parent="1">
          <mxGeometry x="673" y="635.5" width="130" height="60" as="geometry" />
        </mxCell>
        <mxCell id="ajaQP3VODttiOs9Wyczl-149" value="" style="edgeStyle=elbowEdgeStyle;elbow=horizontal;strokeWidth=2;rounded=0" edge="1" parent="1" source="ajaQP3VODttiOs9Wyczl-145" target="ajaQP3VODttiOs9Wyczl-146">
          <mxGeometry x="413" y="135.5" width="100" height="100" as="geometry">
            <mxPoint x="413" y="235.5" as="sourcePoint" />
            <mxPoint x="513" y="135.5" as="targetPoint" />
            <Array as="points">
              <mxPoint x="638" y="435.5" />
            </Array>
          </mxGeometry>
        </mxCell>
        <mxCell id="ajaQP3VODttiOs9Wyczl-150" value="" style="edgeStyle=elbowEdgeStyle;elbow=horizontal;strokeWidth=2;rounded=0" edge="1" parent="1" source="ajaQP3VODttiOs9Wyczl-145" target="ajaQP3VODttiOs9Wyczl-147">
          <mxGeometry x="413" y="135.5" width="100" height="100" as="geometry">
            <mxPoint x="413" y="235.5" as="sourcePoint" />
            <mxPoint x="513" y="135.5" as="targetPoint" />
            <Array as="points">
              <mxPoint x="638" y="475.5" />
            </Array>
          </mxGeometry>
        </mxCell>
        <mxCell id="ajaQP3VODttiOs9Wyczl-151" value="" style="edgeStyle=elbowEdgeStyle;elbow=horizontal;strokeWidth=2;rounded=0" edge="1" parent="1" source="ajaQP3VODttiOs9Wyczl-145" target="ajaQP3VODttiOs9Wyczl-148">
          <mxGeometry x="413" y="135.5" width="100" height="100" as="geometry">
            <mxPoint x="413" y="235.5" as="sourcePoint" />
            <mxPoint x="513" y="135.5" as="targetPoint" />
            <Array as="points">
              <mxPoint x="638" y="525.5" />
            </Array>
          </mxGeometry>
        </mxCell>
        <mxCell id="ajaQP3VODttiOs9Wyczl-152" value="接口" style="rounded=1;fontStyle=1;fontFamily=Tahoma;fontSize=14" vertex="1" parent="1">
          <mxGeometry x="673" y="725.5" width="130" height="60" as="geometry" />
        </mxCell>
        <mxCell id="ajaQP3VODttiOs9Wyczl-153" value="" style="edgeStyle=elbowEdgeStyle;elbow=horizontal;strokeWidth=2;rounded=0;entryX=0;entryY=0.5;entryDx=0;entryDy=0;" edge="1" parent="1" target="ajaQP3VODttiOs9Wyczl-152">
          <mxGeometry x="413" y="145.5" width="100" height="100" as="geometry">
            <mxPoint x="638" y="425.5" as="sourcePoint" />
            <mxPoint x="673" y="675.5" as="targetPoint" />
            <Array as="points">
              <mxPoint x="638" y="535.5" />
            </Array>
          </mxGeometry>
        </mxCell>
        <mxCell id="ajaQP3VODttiOs9Wyczl-155" value="" style="edgeStyle=elbowEdgeStyle;elbow=vertical;strokeWidth=2;rounded=0;entryX=0.5;entryY=0;entryDx=0;entryDy=0;exitX=0.5;exitY=1;exitDx=0;exitDy=0;" edge="1" parent="1" source="2" target="ajaQP3VODttiOs9Wyczl-145">
          <mxGeometry x="-25" y="135.5" width="100" height="100" as="geometry">
            <mxPoint x="850" y="265.5" as="sourcePoint" />
            <mxPoint x="200" y="335.5" as="targetPoint" />
          </mxGeometry>
        </mxCell>
        <mxCell id="ajaQP3VODttiOs9Wyczl-171" value="安全措施" style="rounded=1;fontStyle=1;fontFamily=Tahoma;fontSize=14" vertex="1" parent="1">
          <mxGeometry x="673" y="815.5" width="130" height="60" as="geometry" />
        </mxCell>
        <mxCell id="ajaQP3VODttiOs9Wyczl-172" value="系统分析里程碑" style="rounded=1;fontStyle=1;fontFamily=Tahoma;fontSize=14" vertex="1" parent="1">
          <mxGeometry x="673" y="905.5" width="130" height="60" as="geometry" />
        </mxCell>
        <mxCell id="ajaQP3VODttiOs9Wyczl-176" value="" style="edgeStyle=elbowEdgeStyle;elbow=horizontal;strokeWidth=2;rounded=0;entryX=0;entryY=0.5;entryDx=0;entryDy=0;" edge="1" parent="1" target="ajaQP3VODttiOs9Wyczl-171">
          <mxGeometry x="413" y="135.5" width="100" height="100" as="geometry">
            <mxPoint x="638" y="415.5" as="sourcePoint" />
            <mxPoint x="673" y="745.5" as="targetPoint" />
            <Array as="points">
              <mxPoint x="638" y="525.5" />
            </Array>
          </mxGeometry>
        </mxCell>
        <mxCell id="ajaQP3VODttiOs9Wyczl-177" value="" style="edgeStyle=elbowEdgeStyle;elbow=horizontal;strokeWidth=2;rounded=0;entryX=0;entryY=0.5;entryDx=0;entryDy=0;" edge="1" parent="1" target="ajaQP3VODttiOs9Wyczl-172">
          <mxGeometry x="413" y="220" width="100" height="100" as="geometry">
            <mxPoint x="638" y="500" as="sourcePoint" />
            <mxPoint x="683" y="940" as="targetPoint" />
            <Array as="points">
              <mxPoint x="638" y="610" />
            </Array>
          </mxGeometry>
        </mxCell>
        <mxCell id="ajaQP3VODttiOs9Wyczl-195" value="会议" style="rounded=1;fontStyle=1;fontFamily=Tahoma;fontSize=14" vertex="1" parent="1">
          <mxGeometry x="885" y="455.5" width="130" height="60" as="geometry" />
        </mxCell>
        <mxCell id="ajaQP3VODttiOs9Wyczl-196" value="分析" style="rounded=1;fontStyle=1;fontFamily=Tahoma;fontSize=14" vertex="1" parent="1">
          <mxGeometry x="885" y="545.5" width="130" height="60" as="geometry" />
        </mxCell>
        <mxCell id="ajaQP3VODttiOs9Wyczl-197" value="开发" style="rounded=1;fontStyle=1;fontFamily=Tahoma;fontSize=14" vertex="1" parent="1">
          <mxGeometry x="885" y="635.5" width="130" height="60" as="geometry" />
        </mxCell>
        <mxCell id="ajaQP3VODttiOs9Wyczl-198" value="" style="edgeStyle=elbowEdgeStyle;elbow=horizontal;strokeWidth=2;rounded=0" edge="1" parent="1" target="ajaQP3VODttiOs9Wyczl-195">
          <mxGeometry x="625" y="135.5" width="100" height="100" as="geometry">
            <mxPoint x="850" y="415.5" as="sourcePoint" />
            <mxPoint x="725" y="135.5" as="targetPoint" />
            <Array as="points">
              <mxPoint x="850" y="435.5" />
            </Array>
          </mxGeometry>
        </mxCell>
        <mxCell id="ajaQP3VODttiOs9Wyczl-199" value="" style="edgeStyle=elbowEdgeStyle;elbow=horizontal;strokeWidth=2;rounded=0" edge="1" parent="1" target="ajaQP3VODttiOs9Wyczl-196">
          <mxGeometry x="625" y="135.5" width="100" height="100" as="geometry">
            <mxPoint x="850" y="415.5" as="sourcePoint" />
            <mxPoint x="725" y="135.5" as="targetPoint" />
            <Array as="points">
              <mxPoint x="850" y="475.5" />
            </Array>
          </mxGeometry>
        </mxCell>
        <mxCell id="ajaQP3VODttiOs9Wyczl-200" value="" style="edgeStyle=elbowEdgeStyle;elbow=horizontal;strokeWidth=2;rounded=0" edge="1" parent="1" target="ajaQP3VODttiOs9Wyczl-197">
          <mxGeometry x="625" y="135.5" width="100" height="100" as="geometry">
            <mxPoint x="850" y="415.5" as="sourcePoint" />
            <mxPoint x="725" y="135.5" as="targetPoint" />
            <Array as="points">
              <mxPoint x="850" y="525.5" />
            </Array>
          </mxGeometry>
        </mxCell>
        <mxCell id="ajaQP3VODttiOs9Wyczl-201" value="部分" style="rounded=1;fontStyle=1;fontFamily=Tahoma;fontSize=14" vertex="1" parent="1">
          <mxGeometry x="885" y="725.5" width="130" height="60" as="geometry" />
        </mxCell>
        <mxCell id="ajaQP3VODttiOs9Wyczl-202" value="文档管理" style="rounded=1;fontStyle=1;fontFamily=Tahoma;fontSize=14" vertex="1" parent="1">
          <mxGeometry x="885" y="815.5" width="130" height="60" as="geometry" />
        </mxCell>
        <mxCell id="ajaQP3VODttiOs9Wyczl-203" value="风险分析" style="rounded=1;fontStyle=1;fontFamily=Tahoma;fontSize=14" vertex="1" parent="1">
          <mxGeometry x="885" y="905.5" width="130" height="60" as="geometry" />
        </mxCell>
        <mxCell id="ajaQP3VODttiOs9Wyczl-204" value="" style="edgeStyle=elbowEdgeStyle;elbow=horizontal;strokeWidth=2;rounded=0;entryX=0;entryY=0.5;entryDx=0;entryDy=0;" edge="1" parent="1" target="ajaQP3VODttiOs9Wyczl-201">
          <mxGeometry x="625" y="145.5" width="100" height="100" as="geometry">
            <mxPoint x="850" y="425.5" as="sourcePoint" />
            <mxPoint x="885" y="675.5" as="targetPoint" />
            <Array as="points">
              <mxPoint x="850" y="535.5" />
            </Array>
          </mxGeometry>
        </mxCell>
        <mxCell id="ajaQP3VODttiOs9Wyczl-205" value="" style="edgeStyle=elbowEdgeStyle;elbow=horizontal;strokeWidth=2;rounded=0;entryX=0;entryY=0.5;entryDx=0;entryDy=0;" edge="1" parent="1" target="ajaQP3VODttiOs9Wyczl-202">
          <mxGeometry x="625" y="160" width="100" height="100" as="geometry">
            <mxPoint x="850" y="440" as="sourcePoint" />
            <mxPoint x="885" y="770" as="targetPoint" />
            <Array as="points">
              <mxPoint x="850" y="550" />
            </Array>
          </mxGeometry>
        </mxCell>
        <mxCell id="ajaQP3VODttiOs9Wyczl-206" value="" style="edgeStyle=elbowEdgeStyle;elbow=horizontal;strokeWidth=2;rounded=0;entryX=0;entryY=0.5;entryDx=0;entryDy=0;" edge="1" parent="1" target="ajaQP3VODttiOs9Wyczl-203">
          <mxGeometry x="625" y="165.5" width="100" height="100" as="geometry">
            <mxPoint x="850" y="445.5" as="sourcePoint" />
            <mxPoint x="885" y="851" as="targetPoint" />
            <Array as="points">
              <mxPoint x="850" y="555.5" />
            </Array>
          </mxGeometry>
        </mxCell>
        <mxCell id="ajaQP3VODttiOs9Wyczl-207" value="" style="edgeStyle=elbowEdgeStyle;elbow=vertical;strokeWidth=2;rounded=0;entryX=0.5;entryY=0;entryDx=0;entryDy=0;" edge="1" parent="1" target="10">
          <mxGeometry x="-15" y="145.5" width="100" height="100" as="geometry">
            <mxPoint x="852" y="270" as="sourcePoint" />
            <mxPoint x="648" y="345.5" as="targetPoint" />
            <Array as="points">
              <mxPoint x="860" y="302" />
            </Array>
          </mxGeometry>
        </mxCell>
      </root>
    </mxGraphModel>
  </diagram>
</mxfile>
